<svg width="29" height="34" viewBox="0 0 29 34" fill="none" xmlns="http://www.w3.org/2000/svg">
<g clip-path="url(#clip0)">
<path d="M11.6435 14.3933C10.7439 14.3933 10.0337 15.2028 10.0337 16.1905C10.0337 17.1781 10.7597 17.9876 11.6435 17.9876C12.5431 17.9876 13.2533 17.1781 13.2533 16.1905C13.2691 15.2028 12.5431 14.3933 11.6435 14.3933ZM17.404 14.3933C16.5044 14.3933 15.7942 15.2028 15.7942 16.1905C15.7942 17.1781 16.5202 17.9876 17.404 17.9876C18.3036 17.9876 19.0138 17.1781 19.0138 16.1905C19.0138 15.2028 18.3036 14.3933 17.404 14.3933Z" fill="#7289DA"/>
<path d="M25.0741 0.809479H3.9258C2.1424 0.809479 0.69043 2.299 0.69043 4.14472V26.0342C0.69043 27.88 2.1424 29.3695 3.9258 29.3695H21.8229L20.9865 26.3742L23.0066 28.3009L24.9163 30.1142L28.3095 33.1904V4.14472C28.3095 2.299 26.8575 0.809479 25.0741 0.809479ZM18.9821 21.9542C18.9821 21.9542 18.414 21.2581 17.9405 20.6428C20.008 20.0438 20.7971 18.7161 20.7971 18.7161C20.15 19.1533 19.5345 19.4609 18.9821 19.6714C18.193 20.0114 17.4355 20.2381 16.6937 20.3676C15.1786 20.659 13.7898 20.5781 12.6061 20.3514C11.7065 20.1733 10.9332 19.9142 10.2861 19.6552C9.92308 19.5095 9.52853 19.3314 9.13397 19.1047C9.08662 19.0723 9.03927 19.0561 8.99193 19.0238C8.96036 19.0076 8.94458 18.9914 8.9288 18.9752C8.64472 18.8133 8.48689 18.7 8.48689 18.7C8.48689 18.7 9.24444 19.9952 11.2488 20.6104C10.7753 21.2257 10.1914 21.9542 10.1914 21.9542C6.70349 21.8409 5.37778 19.4933 5.37778 19.4933C5.37778 14.28 7.65043 10.0542 7.65043 10.0542C9.92308 8.30567 12.0853 8.35424 12.0853 8.35424L12.2431 8.54853C9.40227 9.39043 8.09234 10.6695 8.09234 10.6695C8.09234 10.6695 8.43955 10.4752 9.02349 10.2C10.7122 9.439 12.0537 9.22853 12.6061 9.17995C12.7008 9.16376 12.7797 9.14757 12.8744 9.14757C13.8371 9.01805 14.9261 8.98567 16.0624 9.11519C17.5617 9.29329 19.1715 9.74662 20.8129 10.6695C20.8129 10.6695 19.5661 9.45519 16.8831 8.61329L17.104 8.35424C17.104 8.35424 19.2662 8.30567 21.5389 10.0542C21.5389 10.0542 23.8115 14.28 23.8115 19.4933C23.8115 19.4933 22.47 21.8409 18.9821 21.9542Z" fill="#7289DA"/>
</g>
<defs>
<clipPath id="clip0">
<rect width="29" height="34" fill="white"/>
</clipPath>
</defs>
</svg>
