<svg width="34" height="34" viewBox="0 0 34 34" fill="none" xmlns="http://www.w3.org/2000/svg">
<g clip-path="url(#clip0)">
<path d="M17 34C26.3888 34 34 26.3888 34 17C34 7.61114 26.3888 -1.52588e-05 17 -1.52588e-05C7.61116 -1.52588e-05 0 7.61114 0 17C0 26.3888 7.61116 34 17 34Z" fill="url(#paint0_linear)"/>
<path d="M7.69519 16.8205C12.651 14.6614 15.9557 13.2379 17.6092 12.5501C22.3303 10.5865 23.3113 10.2454 23.9507 10.234C24.0913 10.2316 24.4058 10.2665 24.6094 10.4318C24.7814 10.5713 24.8287 10.7598 24.8514 10.8921C24.874 11.0245 24.9022 11.3259 24.8798 11.5614C24.624 14.2495 23.517 20.7728 22.9538 23.7835C22.7155 25.0575 22.2463 25.4846 21.792 25.5264C20.8048 25.6173 20.0551 24.874 19.099 24.2472C17.6027 23.2664 16.7575 22.6559 15.3051 21.6988C13.6267 20.5927 14.7148 19.9848 15.6713 18.9913C15.9216 18.7313 20.2713 14.7749 20.3555 14.416C20.3661 14.3711 20.3758 14.2038 20.2764 14.1154C20.177 14.0271 20.0303 14.0573 19.9244 14.0813C19.7744 14.1154 17.3842 15.6953 12.7538 18.8209C12.0753 19.2868 11.4608 19.5138 10.9102 19.5019C10.3032 19.4888 9.13558 19.1587 8.26759 18.8765C7.20296 18.5305 6.35682 18.3475 6.4305 17.7598C6.46888 17.4536 6.89044 17.1406 7.69519 16.8205Z" fill="white"/>
</g>
<defs>
<linearGradient id="paint0_linear" x1="17" y1="-1.52588e-05" x2="17" y2="33.7477" gradientUnits="userSpaceOnUse">
<stop stop-color="#2AABEE"/>
<stop offset="1" stop-color="#229ED9"/>
</linearGradient>
<clipPath id="clip0">
<rect width="34" height="34" fill="white"/>
</clipPath>
</defs>
</svg>
