<svg width="497" height="497" viewBox="0 0 497 497" fill="none" xmlns="http://www.w3.org/2000/svg">
<rect width="497" height="497" fill="white"/>
<path d="M362.401 431.396C402.126 434.863 474.06 380.371 418.727 299.857C361.462 206.565 459.228 139.823 378.714 88.1345C320.353 50.668 250.202 131.62 203.235 115.548C103.045 88.1345 39.6434 189.411 83.8275 253.801C116.844 301.917 36.7679 334.978 68.9175 373.081C104.701 415.492 133.058 369.645 185.547 379.243C261.753 393.179 316.373 427.379 362.401 431.396Z" fill="#2BCACA"/>
<path d="M286.872 102.296L287.504 102.672L288.13 103.053C296.949 108.475 294.685 117.153 306.276 130.048C331.381 157.978 355.386 186.958 378.215 216.895L380.015 219.26L380.538 219.95C389.035 231.194 392.773 238.421 392.983 247.092C393.138 253.504 399.718 257.813 394.946 262.781L394.689 263.045L394.663 263.068L394.584 263.155C393.449 264.374 392.178 265.457 390.793 266.379L390.422 266.62L390.306 266.701C384.465 270.684 377.586 272.339 371.172 271.117L370.829 271.048L370.55 270.988L370.514 271.233C364.014 314.098 350.763 355.931 331.403 394.723L330.814 395.897L330.21 397.094L329.863 397.773L329.509 398.454C327.712 401.872 326.411 403.761 324.465 405.496C321.746 407.92 318.3 409.272 314.046 409.821C311.034 410.21 308.201 410.207 303.416 409.933L302.577 409.884C283.374 408.719 264.094 408.726 244.88 409.903L243.079 410.017L241.591 410.115L241.373 410.139C238.466 410.447 235.83 410.669 233.307 410.807L232.679 410.84L231.975 410.871L231.847 410.883C228.854 411.149 225.865 411.444 222.879 411.767L217.788 412.343L213.502 412.834L211.616 413.04C211.033 413.102 210.488 413.158 209.956 413.21L207.94 413.397L207.798 413.504C207.726 413.555 207.654 413.606 207.58 413.655L207.355 413.799L207.12 413.937L206.361 414.349L205.851 413.968L205.705 413.853L205.565 413.729L205.434 413.599L205.097 413.623C197.773 414.131 191.69 413.945 185.952 412.847L185.432 412.745L184.927 412.641C171.925 409.888 161.142 401.355 158.317 390.226C147.674 348.287 132.784 307.427 113.951 268.473L113.695 267.946L113.57 268.02C109.104 270.55 103.492 269.93 98.5487 266.722L98.2936 266.554L98.0346 266.377L97.9747 266.352C96.4246 265.665 95.048 264.43 94.0663 262.879L93.9288 262.655L93.8315 262.44L93.7948 262.456C92.1946 260.492 91.0102 258.288 90.3481 255.994L90.2527 255.649L90.1652 255.303C88.0453 246.499 90.7721 237.428 97.4473 225.919C99.3869 222.575 111.177 202.856 126.99 193.498C144.384 183.204 141.145 184.115 144.882 180.907C147.775 177.264 136.162 156.343 125.907 145.787C115.652 135.232 156.017 124.493 159.156 125.654C159.978 125.958 160.737 126.335 161.439 126.784L161.736 126.981L161.769 127.003L161.848 126.799L162.082 127.229L162.197 127.314C163.617 128.396 164.781 129.814 165.749 131.568L165.929 131.901L166.077 132.19C167.169 134.355 169.293 135.45 170.305 139.492L170.993 142.288L171.19 143.075L171.382 143.825C172.175 146.876 173.619 149.035 174.505 150.87L174.613 151.088L174.667 151.197L174.915 150.869C189.556 131.596 206.435 116.696 227.977 105.673L227.821 105.677C225.44 105.677 231.666 102.871 247.418 97.2963L248.312 96.9829L249.236 96.6654C260.874 92.7068 274.651 95.0833 286.872 102.296Z" fill="white"/>
<path d="M373.734 269.461L373.39 269.392L373.112 269.332L373.076 269.577C366.576 312.442 353.325 354.275 333.964 393.067L333.376 394.241L332.771 395.438L332.424 396.117C330.439 399.971 329.098 401.993 327.027 403.839C324.308 406.264 320.861 407.615 316.607 408.165C313.596 408.554 311.496 407.329 303.815 406.634C329.947 392.38 333.996 365.429 343.136 347.9C369.683 296.984 353.209 283.128 373.734 269.461Z" fill="#E7EAEE"/>
<path d="M256.853 457.049C256.511 457.86 255.407 458.168 254.734 457.64C255.143 457.069 255.572 456.479 256.171 456.145C256.769 455.811 257.589 455.81 258.047 456.338C257.694 456.597 257.341 456.857 256.988 457.117L256.853 457.049Z" fill="#00160A"/>
<path d="M257.095 459.679C256.308 459.749 255.521 459.819 254.734 459.89C255.078 459.451 255.423 459.013 255.767 458.574C256.219 458.554 256.711 458.544 257.076 458.775C257.44 459.007 257.519 459.579 257.112 459.749L257.095 459.679Z" fill="#00160A"/>
<path d="M282.847 427.42C282.484 427.249 282.506 426.769 282.725 426.465C282.945 426.16 283.298 425.94 283.502 425.628C283.72 425.294 283.745 424.893 283.764 424.509C283.828 423.271 283.892 422.032 283.956 420.793C284.586 421.814 284.709 423.065 284.288 424.165C284.926 424.069 285.616 424.391 285.879 424.907C284.935 425.803 283.921 426.643 282.847 427.42Z" fill="#00160A"/>
<path d="M281.821 426.756C280.8 426.552 279.976 425.608 279.915 424.572C280.618 424.836 281.411 424.315 281.751 423.648C282.091 422.981 282.113 422.205 282.215 421.464C282.448 419.778 283.139 418.156 284.193 416.816C284.841 417.856 284.592 419.356 283.643 420.132C282.183 421.325 283.492 423.963 282.333 425.448C282.019 425.85 281.516 426.348 281.821 426.756Z" fill="#00160A"/>
<path d="M166.599 177.126C162.184 181.889 154.455 183.958 148.926 180.539C144.402 177.742 142.448 172.314 140.304 167.457C138.102 162.468 135.394 157.702 132.234 153.255C130.132 150.297 127.129 147.177 123.526 147.676C124.207 146.494 125.875 146.193 127.16 146.658C128.446 147.123 129.428 148.159 130.326 149.187C134.848 154.364 138.568 160.236 141.312 166.532C142.661 169.629 143.793 172.858 145.702 175.647C147.611 178.437 150.482 180.8 153.852 181.152C156.781 181.457 159.628 180.232 162.316 179.034C163.744 178.398 165.172 177.762 166.599 177.126Z" fill="#00160A"/>
<path d="M215.954 451.304C220.438 449.152 225.55 448.948 230.504 448.781C236.995 448.563 243.569 448.352 249.907 449.799C252.087 450.297 254.648 451.514 254.725 453.791C254.801 456.068 254.419 458.359 253.611 460.483C252.634 458.677 250.111 458.745 248.108 459.036C237.437 460.585 226.463 461.494 215.963 459.011C214.727 458.718 213.383 458.294 212.714 457.194C212.055 456.11 212.284 454.639 212.998 453.59C213.711 452.542 214.822 451.848 215.954 451.304ZM228.461 458.557C225.06 458.296 221.665 457.941 218.283 457.493C217.29 457.361 216.261 457.208 215.421 456.651C214.582 456.094 213.989 455.013 214.3 454.042C213.315 454.243 213.068 455.713 213.661 456.54C214.254 457.366 215.303 457.683 216.281 457.915C226.854 460.431 237.895 459.21 248.682 457.956C250.844 457.705 253.565 456.906 253.761 454.696C253.964 452.404 251.233 451.142 249.014 450.726C239.996 449.036 230.721 449.694 221.611 450.753C220.217 450.915 218.791 451.097 217.542 451.748C216.293 452.399 215.238 453.625 215.173 455.054C218.354 457.513 222.831 456.655 226.759 457.376C227.478 457.508 228.317 457.826 228.461 458.557Z" fill="#00160A"/>
<path d="M218.117 362.617C218.841 363.377 219.154 364.496 218.81 365.463C218.466 366.43 217.424 367.169 216.34 367.114C215.255 367.058 214.271 366.134 214.313 365.115C214.368 363.782 214.73 362.091 216.126 361.842C216.865 361.71 217.617 362.091 218.117 362.617V362.617ZM215.762 364.541C215.213 365.25 216.319 366.297 217.186 365.971C218.052 365.645 218.304 364.519 217.91 363.725C217.785 363.474 217.606 363.239 217.357 363.092C216.546 362.61 215.33 363.58 215.706 364.409L215.762 364.541Z" fill="#00160A"/>
<path d="M252.324 438.037C252.023 437.832 251.722 437.627 251.421 437.421C252.306 435.324 252.444 432.918 251.806 430.732C254.564 431.936 251.843 437.447 254.558 438.746C254.721 436.223 256.709 434.115 259.003 433.07C261.297 432.024 263.875 431.841 266.389 431.673C275.996 431.03 285.832 430.411 295.086 433.08C296.864 433.592 298.899 434.568 299.115 436.411C299.329 438.246 297.558 439.689 295.853 440.387C293.112 441.51 290.097 441.733 287.139 441.858C278.819 442.211 270.471 441.894 262.202 440.913C259.899 440.64 257.391 440.206 255.873 438.448C254.799 439.636 252.877 439.94 251.49 439.143C251.768 438.774 252.046 438.406 252.324 438.037V438.037ZM260.352 433.762C259.688 433.892 258.959 434.072 258.577 434.632C258.066 435.384 258.481 436.481 259.217 437.013C259.953 437.545 260.9 437.661 261.803 437.76C268.476 438.494 275.149 439.228 281.822 439.961C275.463 440.471 269.035 440.105 262.774 438.876C260.835 438.495 258.814 437.981 257.374 436.624C256.851 437.118 257.039 438.051 257.568 438.537C258.097 439.023 258.841 439.178 259.547 439.306C270.404 441.288 281.564 441.588 292.511 440.193C294.152 439.983 295.93 439.662 297.026 438.419C298.121 437.177 297.863 434.734 296.251 434.363C284.501 431.657 272.185 431.451 260.352 433.762Z" fill="#00160A"/>
<path d="M214.866 340.882C214.498 341.297 214.755 341.951 214.945 342.48C215.349 343.602 215.354 344.831 215.354 346.03C215.354 349.11 215.354 352.191 215.353 355.271C215.353 355.836 215.194 356.586 214.653 356.609C214.634 352.885 214.615 349.162 214.596 345.438C214.589 344.016 214.552 342.494 213.767 341.33C213.284 340.614 214.382 339.676 215.154 340.021C215.926 340.367 216.241 341.32 216.403 342.18C216.751 344.021 216.788 345.909 216.824 347.786C216.87 350.129 216.915 352.472 216.961 354.815C216.979 355.763 216.795 356.992 215.903 357.177C216.323 354.098 216.308 350.976 216.291 347.867C216.278 345.446 216.215 342.853 214.866 340.882Z" fill="#00160A"/>
<path d="M212.684 414.919C213.253 415.84 213.823 416.762 214.392 417.683C214.36 415.89 215.146 414.098 216.493 412.891C215.842 414.345 215.649 415.994 215.945 417.557C216.808 416.107 217.396 414.499 217.67 412.841C217.784 414.058 217.899 415.275 218.013 416.491C220.868 415.121 224.133 414.906 227.304 414.715C230.328 414.532 233.353 414.349 236.378 414.167C245.732 413.602 255.125 413.037 264.467 413.773C267.296 413.996 270.236 414.381 272.591 415.938C274.266 417.045 275.612 418.981 275.203 420.925C274.628 423.652 271.262 424.649 268.468 425.094C260.163 426.417 251.81 427.445 243.43 428.176C233.281 429.06 222.638 429.43 213.354 425.298C211.935 424.667 210.461 423.83 209.863 422.415C209.265 421.001 210.133 418.965 211.69 418.969C211.404 417.952 210.648 417.073 209.677 416.627C210.836 415.97 212.551 416.811 212.716 418.117C212.705 417.051 212.694 415.985 212.684 414.919ZM217.418 424.133C222.301 424.825 227.184 425.517 232.068 426.209C225.874 426.633 219.603 425.948 213.654 424.198C216.939 425.888 220.544 426.972 224.228 427.377C226.993 427.681 229.785 427.605 232.564 427.491C245.567 426.956 258.534 425.586 271.356 423.39C273.81 422.97 274.309 419.321 272.659 417.484C271.009 415.646 268.305 415.219 265.824 414.993C253.977 413.916 242.048 414.831 230.188 415.746C225.463 416.111 220.684 416.486 216.19 417.966C214.671 418.466 212.948 419.423 212.918 420.999C212.882 422.985 215.42 423.85 217.418 424.133V424.133ZM211.509 419.997C210.554 420.348 210.501 421.768 211.141 422.55C211.58 423.086 212.247 423.434 212.944 423.491C211.997 422.756 211.609 421.397 212.03 420.285C211.961 420.081 211.722 419.949 211.509 419.997H211.509Z" fill="#00160A"/>
<path d="M245.028 315.445C245.245 315.356 245.464 315.65 245.457 315.926C245.449 316.202 245.299 316.438 245.155 316.654C244.711 317.32 244.178 318.043 243.469 318.079C243.466 316.929 244.123 315.818 245.028 315.445Z" fill="#00160A"/>
<path d="M279.65 333.692C266.521 341.322 253.359 348.969 239.464 355.088C237.222 356.075 234.691 357.033 232.392 356.191C230.777 355.599 229.596 354.219 228.551 352.851C224.92 348.101 221.992 342.813 219.89 337.213C219.362 335.807 218.879 334.338 218.959 332.838C219.038 331.339 219.795 329.787 221.16 329.163C224.728 327.533 228.297 325.903 231.865 324.272C232.441 324.009 233.04 323.728 233.431 323.229C233.891 322.641 233.984 321.855 234.06 321.112C234.632 315.538 235.203 309.964 235.774 304.389C235.915 303.016 236.13 301.497 237.19 300.615C238.25 299.732 240.363 300.283 240.279 301.661C240.225 302.562 241.124 303.191 241.911 303.629C246.107 305.965 250.304 308.3 254.5 310.635C255.287 311.073 256.243 311.518 257.044 311.108C260.606 309.286 264.239 307.603 267.933 306.065C269.179 305.545 270.567 305.036 271.846 305.469C272.877 305.818 273.615 306.712 274.276 307.578C278.084 312.577 281.227 318.084 283.594 323.907C284.229 325.47 284.818 327.172 284.429 328.813C283.889 331.096 281.676 332.514 279.65 333.692ZM220.512 334.336C221.822 338.968 224.152 343.308 227.287 346.958C228.912 348.849 230.859 350.618 233.271 351.241C236.296 352.022 239.453 350.874 242.332 349.658C250.943 346.022 259.208 341.62 267.459 337.225C272.249 334.674 277.039 332.123 281.828 329.572C282.484 329.223 283.197 328.807 283.421 328.098C283.602 327.525 283.411 326.907 283.213 326.339C281.008 320.014 277.747 314.059 273.606 308.796C272.859 307.847 271.996 306.864 270.818 306.598C269.6 306.324 268.366 306.887 267.244 307.436C252.19 314.808 237.251 322.415 222.434 330.253C221.606 330.691 220.713 331.203 220.388 332.082C220.123 332.8 220.304 333.599 220.512 334.336V334.336ZM281.732 330.833C279.035 332.283 276.339 333.733 273.643 335.182C263.275 340.757 252.891 346.34 242.069 350.967C238.386 352.542 233.854 353.921 230.634 351.538C228.951 350.291 227.988 348.21 226.2 347.118C228.129 350.898 230.925 355.228 235.163 355.145C236.675 355.115 238.104 354.489 239.482 353.864C254.101 347.234 268.235 339.529 281.732 330.833ZM240.264 304.486C239.788 304.577 239.54 305.085 239.232 305.459C238.924 305.833 238.255 306.063 238.013 305.644C238.109 305.217 238.205 304.791 238.301 304.365C238.146 304.105 237.729 304.137 237.515 304.351C237.301 304.565 237.237 304.882 237.184 305.18C236.22 310.586 235.533 316.041 235.128 321.517C235.1 321.902 235.118 322.375 235.459 322.556C236.571 322.058 236.452 320.478 236.318 319.265C236.008 316.447 236.686 313.479 238.424 311.24C240.161 309.001 242.998 307.583 245.821 307.81C246.137 307.548 245.769 307.059 245.423 306.839C244.035 305.959 242.561 305.216 241.028 304.624C240.784 304.529 240.522 304.436 240.264 304.486ZM240.318 316.173C240.152 317.191 240.033 318.54 239.026 318.758C238.83 319.457 240.044 319.775 240.528 319.234C241.011 318.692 240.964 317.881 241.027 317.158C241.2 315.182 242.476 313.34 244.263 312.486C246.051 311.632 248.284 311.797 249.926 312.905C250.79 313.488 251.942 314.318 252.708 313.611C253.173 313.182 253.097 312.379 252.7 311.886C252.303 311.393 251.681 311.145 251.075 310.964C248.913 310.319 246.521 310.281 244.447 311.168C242.373 312.055 240.679 313.944 240.318 316.173ZM249.87 309.234C246.985 308.069 243.522 308.47 240.978 310.264C238.434 312.057 236.89 315.187 237.013 318.3C237.041 319.018 237.152 319.731 237.263 320.442C237.321 320.819 237.486 321.295 237.867 321.298C238.372 321.303 238.414 320.561 238.317 320.064C237.788 317.376 238.608 314.456 240.458 312.436C242.308 310.417 245.143 309.348 247.864 309.644C248.579 309.721 249.455 309.822 249.87 309.234V309.234ZM242.031 318.754C244.39 318.732 245.972 316.452 247.551 314.697C247.678 314.556 247.818 314.41 248.001 314.363C248.258 314.296 248.552 314.474 248.614 314.732C248.346 315.038 248.079 315.344 247.811 315.65C248.77 315.848 249.831 315.295 250.218 314.394C248.771 312.913 246.323 312.533 244.496 313.506C242.668 314.479 241.614 316.724 242.031 318.754ZM237.877 302.859C238.578 303.022 239.368 302.615 239.642 301.948C238.914 301.266 237.531 301.574 237.162 302.501C237.388 302.643 237.615 302.785 237.841 302.927L237.877 302.859ZM253.742 311.919C253.524 312.451 254.447 312.927 254.788 312.465C255.129 312.003 254.52 311.26 253.982 311.459C253.798 311.528 253.65 311.668 253.508 311.804L253.742 311.919Z" fill="#00160A"/>
<path d="M318.566 346.535C315.67 344.615 314.733 340.847 314.206 337.412C312.794 328.206 312.673 318.803 313.848 309.563C314.022 308.188 314.258 306.741 315.138 305.67C316.753 303.703 319.726 303.807 322.269 303.926C328.984 304.24 335.751 303.446 342.21 301.585C343.289 301.274 344.446 302.013 344.989 302.995C345.531 303.977 345.606 305.141 345.669 306.261C346.008 312.334 346.347 318.407 346.687 324.48C346.976 329.652 347.172 335.206 344.404 339.584C340.816 345.261 333.458 347.115 326.771 347.749C323.962 348.015 320.917 348.095 318.566 346.535V346.535ZM319.379 304.944C318.633 304.997 317.864 305.091 317.217 305.466C316.012 306.164 315.522 307.631 315.197 308.985C314.001 313.958 313.721 319.149 314.373 324.222C319.477 324.467 324.602 324.26 329.67 323.605C329.952 323.569 330.248 323.525 330.475 323.353C330.888 323.038 330.912 322.436 330.896 321.917C330.771 317.961 330.453 314.01 329.942 310.085C329.784 308.866 329.568 307.565 328.721 306.672C327.964 305.874 326.84 305.554 325.761 305.341C323.664 304.928 321.511 304.794 319.379 304.944V304.944ZM324.993 344.555C326.438 344.451 328.138 344.187 328.787 342.892C329.015 342.435 329.07 341.915 329.121 341.407C329.493 337.687 329.864 333.967 330.236 330.247C330.296 329.653 330.343 329.006 330.014 328.508C329.386 327.555 327.951 327.799 326.855 328.116C322.97 329.238 318.941 329.861 314.898 329.963C313.821 332.688 315.362 335.669 315.751 338.573C315.877 339.512 315.883 340.483 316.221 341.369C316.818 342.932 318.375 343.969 319.998 344.379C321.62 344.79 323.324 344.674 324.993 344.555ZM338.27 339.754C336.219 342.144 332.583 343.111 331.321 345.995C339.357 345.384 346.167 337.655 345.759 329.607C345.358 321.691 344.957 313.776 344.556 305.86C344.524 305.243 344.486 304.601 344.184 304.062C343.517 302.875 341.865 302.675 340.538 302.982C339.212 303.288 337.955 303.956 336.595 303.989C340.509 306.281 340.953 311.662 340.941 316.197C340.936 318.254 340.93 320.312 340.925 322.37C341.925 321.399 343.856 322.135 344.2 323.486C344.543 324.837 343.525 326.283 342.199 326.714C340.187 327.368 340.193 330.15 340.294 332.263C340.422 334.91 339.996 337.742 338.27 339.754V339.754ZM334.585 304.522C333.9 304.435 333.206 304.536 332.523 304.637C331.808 304.743 331.093 304.848 330.378 304.954C332.64 307.024 333.81 310.055 334.311 313.079C334.812 316.104 334.718 319.191 334.866 322.253C334.879 322.52 334.915 322.826 335.137 322.975C335.31 323.092 335.537 323.07 335.744 323.043C336.675 322.923 337.606 322.804 338.537 322.684C338.765 322.655 339.008 322.619 339.181 322.467C339.396 322.277 339.441 321.963 339.471 321.677C339.906 317.557 340.33 313.303 339.111 309.343C338.426 307.113 336.9 304.814 334.585 304.522ZM328.859 345.936C330.143 345.391 331.382 344.553 331.981 343.294C332.412 342.389 332.472 341.359 332.525 340.358C332.827 334.586 333.13 328.813 333.432 323.041C333.749 317.005 333.852 310.306 329.9 305.731C333.032 316.568 331.808 328.124 330.558 339.334C330.258 342.018 329.354 345.366 326.68 345.746C324.064 345.661 321.448 345.576 318.833 345.492C321.885 347.119 325.675 347.287 328.859 345.936ZM339.342 331.349C339.382 330.237 339.422 329.125 339.462 328.013C337.708 327.925 335.939 328.134 334.253 328.63C333.86 332.796 333.666 336.981 333.675 341.166C333.675 341.252 333.676 341.341 333.713 341.418C333.856 341.719 334.309 341.577 334.587 341.394C335.526 340.774 336.478 340.144 337.215 339.295C339.051 337.181 339.241 334.146 339.342 331.349ZM315.182 329.219C319.262 328.473 323.342 327.726 327.421 326.979C328.411 326.798 329.554 326.655 330.313 327.315C330.524 326.772 330.739 326.195 330.645 325.619C330.551 325.043 330.021 324.495 329.447 324.605C325.249 325.408 320.936 325.609 316.681 325.201C315.716 325.108 314.727 325.727 314.388 326.635C314.05 327.543 314.392 328.658 315.182 329.219ZM341.177 323.135C339.292 323.543 337.408 323.951 335.523 324.36C335.242 324.421 334.941 324.493 334.749 324.707C334.51 324.974 334.515 325.374 334.533 325.732C334.565 326.343 334.597 326.955 334.628 327.566C336.59 327.133 338.552 326.7 340.514 326.267C341.31 326.091 342.156 325.887 342.712 325.292C343.267 324.696 343.32 323.572 342.61 323.173C342.183 322.934 341.655 323.031 341.177 323.135V323.135Z" fill="#00160A"/>
<path d="M289.523 100.969L290.155 101.346C299.272 106.837 306.34 113.535 318.204 126.734C343.309 154.664 367.314 183.644 390.143 213.58L391.943 215.946L392.466 216.636C400.963 227.88 404.701 235.106 404.911 243.777C405.066 250.19 402.369 256.487 397.597 261.454L397.339 261.719L397.314 261.742L397.235 261.829C396.1 263.048 394.829 264.13 393.444 265.053L393.072 265.294L392.957 265.375C387.115 269.358 380.237 271.012 373.823 269.791L373.479 269.722L373.201 269.662L373.165 269.907C366.665 312.772 353.414 354.605 334.053 393.397L333.465 394.571L332.86 395.768L332.514 396.447C330.528 400.301 329.187 402.323 327.116 404.169C324.397 406.594 320.95 407.945 316.697 408.495C313.685 408.884 310.851 408.881 306.067 408.607L305.228 408.557C286.025 407.393 266.745 407.4 247.53 408.577L245.729 408.691L244.241 408.789L244.024 408.813C241.117 409.121 238.481 409.343 235.958 409.481L235.329 409.514L234.626 409.545L234.497 409.556C231.505 409.823 228.515 410.118 225.529 410.441L220.439 411.017L216.153 411.508C214.788 411.66 213.671 411.779 212.607 411.884C200.429 412.374 192.428 412.253 188.603 411.521L188.082 411.419L187.578 411.315C174.576 408.562 163.792 400.029 160.968 388.899C150.325 346.961 135.435 306.101 116.601 267.147L116.345 266.62L116.221 266.694C111.754 269.224 106.142 268.604 101.199 265.396L100.944 265.228L100.685 265.051L100.625 265.026C99.0752 264.339 97.6986 263.104 96.717 261.553L96.5794 261.329L96.5058 261.202L96.4455 261.13C94.8452 259.165 93.6608 256.962 92.9987 254.667L92.9033 254.323L92.8158 253.976C90.6959 245.173 93.4228 236.101 100.098 224.593C112.249 203.644 127.18 187.911 144.985 179.095L145.525 178.83L146.496 180.561C130.773 190.653 117.143 203.994 106.717 219.498C99.568 230.129 95.6377 239.898 95.6254 249.193L95.6275 249.615L95.633 249.964L95.6509 249.931C100.135 241.111 107.629 233.753 119.592 225.025L120.108 224.65L120.588 224.303C133.66 214.875 147.899 205.983 164.355 196.791L166.562 195.563C178.729 188.827 189.079 183.458 209.258 173.3L230.318 162.698C236.1 159.77 240.433 157.545 245.288 155.015L246.511 154.374C256.398 149.146 263.897 144.226 269.822 138.66C277.452 131.492 281.801 123.723 282.445 115.017C282.966 107.984 280.361 101.321 275.383 98.2036C270.544 95.174 264.329 95.397 255.674 97.9464C224.471 107.137 196.527 127.04 177.641 153.522C176.478 155.153 177.27 156.632 177.641 157.514C180.066 163.282 178.582 169.765 175.717 175.325L175.558 175.627L173.31 179.815L175.125 169.795C174.963 153.522 171.914 144.557 165.173 130.991L164.89 130.426L164.723 130.102L164.613 130.319C161.478 136.346 155.456 141.043 148.109 143.627L147.728 143.758L147.363 143.88C141.27 145.881 136.014 146.469 125.343 146.758L122.819 146.819L122.517 146.354C120.686 143.535 122.472 140.024 125.892 137.253C133.16 131.364 141.676 127.027 150.713 124.61C155.274 123.391 158.668 123.167 161.806 124.328C162.629 124.632 163.388 125.008 164.089 125.458L164.387 125.655L164.419 125.677L164.499 125.473L164.733 125.902L164.848 125.988C166.268 127.07 167.432 128.488 168.4 130.242L168.579 130.575L168.728 130.864C169.819 133.028 170.489 135.102 171.502 139.144L172.19 141.94L172.386 142.727C173.26 146.183 174.006 148.525 174.963 150.507L175.07 150.725L175.125 150.834L175.373 150.506C194.286 125.609 220.594 106.402 250.069 95.9702L250.963 95.6567L251.887 95.3393C263.524 91.3806 277.302 93.7571 289.523 100.969ZM239.261 270.039C227.02 270.685 215.019 276.164 206.271 285.03C202.308 289.045 199.757 293.054 198.817 297.284L198.735 297.672C198.185 300.371 198.224 302.847 198.693 307.714L208.75 408.347C208.828 409.131 208.922 409.684 209.064 410.101L209.101 410.202L209.799 410.143L209.894 410.055C211.089 408.899 211.885 407.134 212.126 405.201L212.161 404.88L212.168 404.802C212.331 402.926 212.142 401.345 211.481 398.024L211.294 397.091L211.014 395.66C209.007 385.209 208.045 375.615 206.853 357.666L206.478 351.993C204.934 329.048 203.664 318.382 200.363 305.511C198.874 299.702 200.601 293.113 204.645 287.881C208.071 283.449 212.937 279.972 219.239 277.04C226.884 273.483 234.843 271.505 242.626 271.376C248.91 271.271 255.145 272.258 263.806 274.408L264.642 274.618C271.771 276.438 275.985 278.213 279.564 281.475C283.162 284.754 285.485 289.152 287.63 295.667C292.381 310.095 294.203 325.997 293.938 345.154L293.899 347.375C293.771 353.516 293.486 359.249 292.889 368.522L292.025 381.645C291.616 388.05 291.409 391.991 291.24 396.631L291.222 397.193C291.152 399.728 291.294 401.08 291.885 402.425C292.468 403.75 293.606 404.736 294.774 404.994L294.935 405.024L295.644 356.919C295.905 337.337 295.731 327.884 294.605 316.503L294.569 316.139C293.961 310.083 293.162 305.092 291.965 300.422C291.358 298.056 290.632 295.72 289.79 293.427C287.41 286.944 284.501 282.18 280.497 278.947C275.99 275.307 271.125 273.777 261.109 272.099L260.211 271.95C249.804 270.247 245.076 269.732 239.261 270.039ZM213.808 406.964L213.801 406.989C213.525 408.033 213.106 409.017 212.553 409.892L214.672 409.671C215.282 409.605 215.939 409.532 216.666 409.45L220.22 409.041C219.954 409.007 219.689 408.971 219.424 408.934L218.784 408.84L217.956 408.714L217.937 407.807L217.848 407.859C217.053 408.299 216.174 408.588 215.27 408.695L215.044 408.718L214.147 408.795L213.808 406.964ZM184.07 407.757L184.005 407.846C183.904 407.978 183.789 408.097 183.663 408.204C185.068 408.667 186.513 409.057 187.99 409.37C188.465 409.471 188.943 409.565 189.424 409.652C187.689 409.178 185.987 408.584 184.335 407.873L184.07 407.757ZM239.616 225.649C198.244 227.923 155.816 238.853 112.92 257.352L111.438 257.994L112.958 258.709C116.426 260.339 118.391 263.127 120.976 268.796L125.056 277.844C132.591 294.618 136.992 304.826 141.5 316.211C147.86 332.272 152.752 346.859 156.394 361.121L158.372 369.021C158.623 370.011 158.853 370.903 159.081 371.771L159.383 372.909C161.492 380.77 163.494 386.495 166.109 391.564C169.456 398.052 173.631 402.918 179.024 406.23C180.518 407.148 182.342 407.093 182.525 406.372L182.537 406.307L182.69 404.921L183.95 405.518C190.53 408.634 198.051 409.735 205.251 408.657L205.644 408.595L195.758 310.223L195.665 309.282C195.033 302.868 195.039 299.225 196.068 295.339C197.429 290.195 200.707 285.477 205.533 281.059C213.944 273.36 224.842 268.429 236.177 267.192C243.769 266.363 251.442 267.019 262.092 268.978L263.021 269.151C271.264 270.716 276.343 272.374 280.96 275.527C286.864 279.559 290.933 285.616 293.571 293.556C295.668 299.864 296.789 306.931 297.461 316.145C299.537 344.616 299.537 373.238 297.461 401.708C297.264 404.4 300.81 406.216 305.55 406.438L305.788 406.447L306.455 406.47L307.261 406.493C315.481 406.697 320.182 405.852 323.937 402.734C325.992 401.027 327.364 398.999 329.485 394.958L329.654 394.634C348.809 357.877 361.979 318.009 368.492 277.076L368.688 275.836C369.397 271.279 370.162 268.077 371.407 265.222C373.006 261.558 375.27 258.993 378.409 257.698L378.666 257.596L378.969 257.479L378.835 257.376C376.229 255.391 373.115 253.534 369.046 251.42L368.142 250.954C330.269 231.586 285.638 223.119 239.616 225.649ZM241.511 274.512C234.885 274.774 228.051 276.576 221.115 279.712C211.122 284.231 204.385 290.842 203.38 298.711C203.315 299.217 203.274 299.733 203.255 300.261L203.244 300.647C203.199 302.885 203.486 304.908 204.279 308.594L204.893 311.383C206.91 320.647 207.995 329.693 209.074 343.884L209.896 355.058C211.648 378.51 213.06 391.744 215.675 406.123L215.758 406.578L215.893 406.54C216.689 406.298 217.427 405.859 218.013 405.27L218.156 405.12L219.833 403.28L219.909 406.993L220.33 407.051C224.509 407.601 228.884 407.765 233.657 407.595L234.453 407.565L235.931 407.436C237.943 407.263 239.957 407.104 241.97 406.958L244.027 406.813L245.657 406.633C247.79 406.392 249.831 406.136 253.729 405.631L257.117 405.197C267.909 403.835 273.527 403.372 280.034 403.507L280.914 403.529L283.403 403.614L284.072 403.628C285.801 403.65 287.103 403.56 288.287 403.293L288.397 403.267L288.378 401.861C288.305 395.025 288.529 388.116 289.064 378.519L289.52 370.804L289.952 363.62C290.285 357.904 290.455 354.387 290.593 350.249C291.309 328.874 289.787 312.409 284.828 297.396C282.574 290.57 280.005 285.965 276.154 282.859C272.819 280.168 269.038 278.785 261.961 277.157L260.929 276.921C252.615 275.045 247.168 274.288 241.511 274.512ZM296.917 405.463L296.907 406.136L297.738 406.173C297.438 405.953 297.164 405.716 296.917 405.463ZM290.397 403.882L290.414 404.752L289.699 404.973C288.042 405.485 286.373 405.647 284.035 405.615L283.157 405.596L281.15 405.525L280.857 405.516C277.504 405.421 274.448 405.48 270.856 405.735C277.984 405.65 285.114 405.724 292.237 405.959C291.506 405.422 290.871 404.708 290.397 403.882ZM380.459 258.686L379.62 259.318C377.395 260.993 375.608 263.248 374.472 265.792L374.388 265.986L374.424 265.994C377.357 266.609 379.066 266.648 380.687 265.98L380.839 265.915C382.956 264.982 383.974 262.079 382.661 260.741C382.034 260.102 381.385 259.491 380.704 258.897L380.459 258.686ZM112.583 265.554L111.569 265.904C111.145 266.047 110.759 266.167 110.403 266.263C112.048 266.227 113.628 265.833 115.062 265.062C114.488 264.999 113.752 265.161 112.583 265.554ZM282.4 100.88L282.425 100.937C286.462 110.386 286.003 121.69 281.052 130.719C276.281 139.422 268.943 145.273 255.286 152.944L252.891 154.277C242.719 159.904 233.546 164.668 217.027 172.988L200.26 181.417C182.944 190.152 173.63 195.035 162.679 201.191C145.909 210.617 131.639 219.783 118.723 229.664L117.795 230.378C109.864 236.512 104.802 241.343 100.852 247.07C98.1735 250.952 96.9023 254.392 97.3326 257.63C97.4278 258.346 97.651 259.068 97.983 259.75L98.1125 260.003L98.1478 260.068L98.1733 260.099C99.0845 261.182 100.126 262.165 101.25 263.009L101.59 263.257L101.647 263.297L101.758 263.341C102.337 263.554 102.923 263.655 103.503 263.638L103.537 263.636L103.524 263.487C103.237 259.769 106.628 256.559 111.732 254.327L111.976 254.221C157.669 234.717 202.659 223.622 246.337 222.214C294.752 220.654 341.418 231.371 379.884 253.986C381.058 254.676 382.059 255.322 382.908 255.963L383.48 256.414C385.068 257.725 386.041 259.06 386.571 260.77C387.115 262.525 386.676 264.51 385.649 265.973L385.586 266.06C387.611 265.767 389.621 265.039 391.509 263.922L391.806 263.743L391.959 263.647L392.203 263.479C393.265 262.729 394.275 261.904 395.214 261.018L395.612 260.634L395.85 260.397L395.947 260.293C397.34 258.758 398.476 257.02 399.281 255.179C402.141 248.642 401.722 240.531 398.545 232.729L398.314 232.172C395.87 226.357 392.681 221.638 385.877 212.917C367.283 189.086 347.641 165.221 326.848 141.134L324.832 138.802C316.082 128.696 310.571 122.722 304.391 116.97L304.096 116.696C296.984 110.107 290.004 104.931 282.696 101.037L282.4 100.88ZM110.263 258.535L110.092 258.621C108.771 259.285 108.023 259.861 107.453 260.675C106.607 261.884 106.742 263.641 107.707 264.237C108.425 264.681 109.195 264.61 111.029 263.988L111.507 263.823C112.529 263.463 113.343 263.218 114.044 263.106L114.11 263.096L113.719 262.588C113.254 261.993 112.776 261.409 112.285 260.836L111.79 260.266L110.263 258.535ZM152.078 127.819L151.841 127.869L151.868 128.132C152.067 130.157 150.809 131.84 148.63 133.35L148.435 133.483C145.252 135.621 141.708 137.221 137.998 138.193C134.975 138.986 132.585 139.02 130.548 137.915C130.327 137.795 129.819 137.982 129.179 138.514C127.712 139.732 126.425 141.168 125.373 142.758L125.155 143.093L132.697 143.046C135.234 143.019 136.652 142.957 138.27 142.784L138.45 142.765C147.262 141.788 155.634 137.242 161.251 130.383L161.487 130.087C161.999 129.427 162.238 128.967 162.293 128.501C162.35 128.025 162.069 127.556 161.803 127.519C158.577 127.059 155.273 127.172 152.078 127.819ZM150.708 128.216C142.57 128.916 134.991 133.03 131.639 137.216C131.639 137.516 131.905 137.704 132.374 137.79C133.467 136.449 134.991 135.118 136.826 133.907C137.459 135.781 141.394 134.989 144.131 134.29C147.794 132.296 150.708 129.84 150.708 128.216ZM278.387 97.983L278.46 98.0473C278.668 98.2349 278.871 98.4284 279.069 98.6277L278.795 98.1262L278.46 98.0081L278.387 97.983Z" fill="#00160A"/>
<path d="M274.908 261.863C290.785 270.29 299.143 284.773 297.312 285.609C295.481 286.444 280.59 260.31 243.765 263.363C196.27 265.008 190.395 297.842 188.489 297.195C186.583 296.548 193.975 275.629 211.611 264.466C229.247 253.303 259.031 253.436 274.908 261.863Z" fill="#E7EAEE"/>
<path d="M265.11 330.077C264.964 329.576 264.737 329.103 264.436 328.676C263.989 328.113 263.506 327.579 262.99 327.078C262.333 326.395 259.763 324.227 259.632 323.657C259.586 323.561 259.512 323.482 259.42 323.428C259.283 323.321 259.132 323.232 258.991 323.129C258.648 322.88 258.315 322.616 257.962 322.382C257.832 322.297 257.621 322.32 257.51 322.221C257.066 321.825 256.669 321.373 256.211 320.995C255.659 320.539 255.047 320.157 254.49 319.707C253.978 319.338 253.394 319.08 252.776 318.951C251.996 318.715 251.163 318.714 250.382 318.947C249.666 319.169 249.228 319.66 248.777 320.156C248.348 320.626 248.15 321.263 248.236 321.893C248.172 321.887 248.109 321.877 248.047 321.863C247.058 321.579 246.213 321.936 245.444 322.498C244.948 322.855 244.544 323.325 244.266 323.869C244.002 324.341 243.865 324.873 243.87 325.413C243.86 325.616 243.838 325.817 243.806 326.018C243.759 326.565 243.714 327.113 243.672 327.661C243.649 327.958 243.717 328.292 243.602 328.544C243.353 329.049 243.261 329.617 243.34 330.174C243.384 330.463 243.412 330.755 243.706 330.823C243.638 330.941 243.585 331.068 243.548 331.2C243.511 331.463 243.506 331.731 243.489 331.996C243.434 332.823 243.366 333.649 243.33 334.477C243.311 334.899 243.365 335.324 243.354 335.747C243.285 336.772 243.475 337.798 243.905 338.73C244.182 339.333 244.586 339.868 245.09 340.299C245.561 340.675 246.052 341.029 246.669 341.121C247.019 341.173 247.373 341.195 247.725 341.227C247.989 341.25 248.524 341.284 248.722 341.308C248.985 341.236 249.302 341.26 249.554 341.202C249.643 341.181 249.731 341.161 249.82 341.14C250.357 340.938 250.975 340.652 251.342 340.482C252.147 340.101 252.856 339.543 253.416 338.85C253.805 338.426 254.07 337.902 254.183 337.338C254.299 336.596 254.224 335.837 253.966 335.133C253.653 334.302 253.299 333.487 252.973 332.661C252.64 331.813 252.302 330.965 252.002 330.105C251.864 329.81 251.816 329.481 251.864 329.16C251.898 328.795 251.858 328.427 251.745 328.079C251.624 327.537 251.463 327.004 251.32 326.467L251.45 326.416C251.534 326.545 251.612 326.679 251.703 326.803C251.918 327.164 252.175 327.498 252.468 327.799C252.757 328.061 252.972 328.395 253.09 328.767C253.285 329.271 253.412 329.803 253.626 330.297C254.049 331.277 254.497 332.247 254.969 333.206C255.148 333.582 255.384 333.928 255.667 334.234C256.566 335.185 257.742 335.826 259.029 336.066C259.783 336.196 260.557 336.165 261.299 335.977C262.271 335.779 263.159 335.289 263.845 334.571C264.072 334.318 264.272 334.041 264.44 333.745C264.731 333.293 264.983 332.818 265.194 332.323C265.475 331.58 265.336 330.807 265.11 330.077ZM255.582 320.801C256.138 321.305 256.683 321.82 257.266 322.363C257.031 322.436 256.883 322.54 256.71 322.29C256.526 322.092 256.324 321.911 256.107 321.75C256.037 321.646 255.982 321.533 255.944 321.414C255.802 321.406 255.547 321.423 255.602 321.106C255.427 321.056 255.265 321.01 255.06 320.951C255.25 320.687 255.418 320.652 255.582 320.801ZM255.279 320.585L254.741 320.757L254.862 320.359L254.503 320.47C254.36 320.348 254.241 320.21 254.375 319.999C254.655 320.18 254.935 320.362 255.279 320.585ZM253.733 319.648L254.369 319.996C254.057 320.122 253.852 319.984 253.69 319.738L253.733 319.648ZM249.166 323.207L249.448 323.589L249.342 323.675L249.072 323.275L249.166 323.207ZM244.3 328.086C244.386 327.095 244.445 326.1 244.583 325.115C244.628 324.659 244.785 324.22 245.039 323.838C245.487 323.247 245.992 322.683 246.822 322.545C247.301 322.423 247.808 322.458 248.266 322.644C248.348 322.674 248.419 322.729 248.468 322.801C248.797 323.46 249.231 324.06 249.753 324.579C250.156 325.028 250.435 325.574 250.565 326.163C250.668 326.561 250.719 326.972 250.79 327.378C250.8 327.477 250.806 327.575 250.806 327.674C249.697 327.37 248.603 327.471 247.532 327.606C246.464 327.74 245.416 328.041 244.33 328.275C244.31 328.214 244.3 328.15 244.3 328.086ZM249.504 323.794L249.61 323.751L249.883 323.988C249.774 324.019 249.665 324.077 249.64 324.052C249.582 323.973 249.536 323.886 249.504 323.794ZM249.949 324.219C250.008 324.221 250.095 324.201 250.121 324.231C250.207 324.333 250.363 324.443 250.091 324.638L249.949 324.219ZM243.694 329.538C243.71 329.21 243.764 328.943 244.177 328.831C244.597 328.718 244.969 328.435 245.386 328.302C245.908 328.136 246.443 328.015 246.985 327.939C247.645 327.839 248.312 327.79 248.98 327.793C249.622 327.822 250.262 327.899 250.893 328.022C251.253 328.135 251.522 328.437 251.593 328.808C251.081 328.962 249.924 328.979 249.849 328.99C249.169 329.095 248.486 329.182 247.807 329.29C247.49 329.34 247.18 329.432 246.864 329.488C246.759 329.507 245.923 329.69 245.663 329.758C245.028 329.922 244.385 330.054 243.695 330.211C243.694 329.996 243.682 329.767 243.694 329.538ZM245.062 339.887L244.292 338.863L244.343 338.815C244.407 338.885 244.471 338.954 244.533 339.024C244.697 339.209 244.867 339.389 245.02 339.583C245.069 339.668 245.107 339.76 245.132 339.855L245.062 339.887ZM246.009 340.481L245.953 340.528L245.55 340.256L245.927 340.122L246.009 340.481ZM246.605 340.756C246.403 340.777 246.256 340.699 246.235 340.498C246.23 340.441 246.366 340.36 246.451 340.312C246.512 340.349 246.56 340.404 246.588 340.47C246.606 340.564 246.612 340.66 246.605 340.756ZM247.707 340.898L247.628 340.962C247.479 340.832 247.331 340.703 247.171 340.564L247.039 340.898L246.776 340.52L246.851 340.399C247.126 340.445 247.401 340.492 247.706 340.543L247.707 340.898ZM248.339 340.943C248.014 340.988 248.007 340.982 247.939 340.553C248.003 340.544 248.068 340.534 248.132 340.527C248.197 340.52 248.262 340.516 248.331 340.511L248.339 340.943ZM248.954 340.941C248.634 341.016 248.576 340.954 248.567 340.539C248.668 340.538 248.769 340.538 248.863 340.537L248.954 340.941ZM250.036 340.663C250.035 340.703 249.964 340.78 249.943 340.774C249.887 340.755 249.838 340.718 249.804 340.67C249.75 340.583 249.683 340.505 249.605 340.438C249.538 340.647 249.693 340.946 249.364 340.944C249.26 340.944 249.157 340.692 249.023 340.515L250.005 340.22C250.018 340.373 250.037 340.518 250.036 340.663L250.036 340.663ZM250.637 340.561L250.324 340.65L250.218 340.181C250.337 340.122 250.437 340.072 250.553 340.014L250.637 340.561ZM250.871 340.373L250.789 339.917L251.139 339.738C251.243 340.265 251.227 340.301 250.871 340.373ZM252.016 339.75L251.806 339.395L251.703 339.416C251.697 339.513 251.707 339.611 251.731 339.705C251.789 339.84 251.82 339.943 251.642 339.995C251.48 340.043 251.409 339.96 251.38 339.814C251.363 339.73 251.342 339.646 251.324 339.567C251.576 339.383 251.814 339.209 252.064 339.026L252.361 339.523C252.258 339.591 252.136 339.671 252.016 339.75L252.016 339.75ZM253.393 334.571C253.52 334.864 253.626 335.166 253.711 335.474C253.733 335.555 253.758 335.635 253.787 335.713C253.982 336.248 254.011 336.828 253.87 337.379C253.866 337.393 253.839 337.402 253.823 337.413C253.823 337.768 253.666 338.106 253.393 338.334L252.993 338.127L252.919 338.205L253.269 338.562C253.187 338.655 253.077 338.778 252.967 338.902L252.705 338.571C252.507 338.776 252.569 338.896 252.9 339.007L252.49 339.378L252.264 338.858C252.609 338.333 252.92 337.785 253.195 337.22C253.241 336.954 253.302 336.691 253.377 336.431C253.395 336.37 253.49 336.322 253.559 336.288C253.626 336.263 253.696 336.246 253.767 336.237L253.774 336.153L253.459 336.056L253.393 334.571ZM253.131 334.996C253.263 335.697 253.194 336.421 252.933 337.084C252.657 338.031 252.021 338.831 251.161 339.314C250.681 339.597 250.18 339.843 249.663 340.049C249.26 340.191 248.833 340.253 248.406 340.232C247.696 340.216 246.992 340.114 246.306 339.93C245.782 339.768 244.804 338.819 244.755 338.746C244.602 338.516 244.449 338.283 244.319 338.039C244.005 337.504 243.797 336.913 243.707 336.299C243.648 335.741 243.627 335.179 243.644 334.617C243.661 334.011 243.737 333.405 243.789 332.799C243.839 332.228 243.883 331.655 243.95 331.085C243.979 330.976 244.054 330.885 244.157 330.837C244.442 330.722 244.735 330.626 245.033 330.549C245.247 330.493 245.476 330.496 245.69 330.441C246.592 330.208 247.48 329.905 248.394 329.739C249.166 329.598 249.972 329.647 250.754 329.542C251.338 329.464 251.539 329.732 251.666 330.23C251.807 330.781 252.013 331.314 252.186 331.857C252.206 331.922 252.448 332.513 252.52 332.815C252.694 333.549 252.957 334.262 253.131 334.996L253.131 334.996ZM251.007 325.354C250.935 325.358 250.804 325.381 250.799 325.364C250.774 325.259 250.758 325.152 250.751 325.044L250.931 325.019L251.007 325.354ZM250.454 325.039L250.357 324.611L250.456 324.576L250.765 324.902L250.454 325.039ZM250.471 324.252C249.971 323.729 249.439 323.236 249.132 322.553C248.666 321.669 248.973 320.575 249.83 320.064C250.395 319.681 251.067 319.487 251.749 319.509C252.528 319.514 253.28 319.797 253.869 320.307C254.511 320.849 255.157 321.388 255.791 321.94C256.022 322.141 256.222 322.377 256.465 322.626C256.121 322.789 255.792 322.936 255.47 323.099C254.537 323.563 253.664 324.138 252.869 324.811C252.626 325.034 252.408 325.281 252.217 325.549C252.075 325.736 251.976 325.791 251.792 325.596C251.36 325.14 250.905 324.706 250.471 324.252ZM251.205 325.764C251.161 325.672 251.135 325.574 251.127 325.473L251.206 325.441L251.449 325.645L251.448 325.745C251.364 325.754 251.23 325.798 251.205 325.764L251.205 325.764ZM251.657 326.374L251.496 325.954C251.566 325.95 251.649 325.92 251.704 325.946C251.895 326.039 251.839 326.161 251.657 326.374ZM252.608 327.374C252.387 327.21 252.195 327.012 252.037 326.786C251.973 326.689 252.016 326.483 252.071 326.351C252.382 325.669 252.875 325.085 253.497 324.666C254.398 323.981 255.389 323.423 256.441 323.007C256.611 322.942 256.781 322.876 256.945 322.799C257.663 322.464 258.416 322.852 258.822 323.55C258.584 323.604 258.358 323.648 258.136 323.707C256.055 324.166 254.214 325.372 252.962 327.098C252.877 327.221 252.638 327.398 252.608 327.374ZM253.804 329.651C253.617 329.143 253.401 328.646 253.158 328.163C253.058 328.028 253.078 327.84 253.204 327.729C253.353 327.576 253.491 327.412 253.646 327.265C254.624 326.338 255.638 325.455 256.845 324.831C257.212 324.636 257.59 324.464 257.977 324.314C258.342 324.167 258.723 324.063 259.112 324.004C259.268 323.984 259.472 324.158 259.617 324.286C259.965 324.59 260.296 324.915 260.625 325.241C261.243 325.853 261.868 326.459 262.465 327.091C263.137 327.799 263.565 328.651 263.906 329.784C263.957 330.357 263.971 330.933 263.949 331.508C263.869 332.17 263.52 332.77 262.984 333.168C262.46 333.611 261.899 334.008 261.308 334.355C260.273 334.945 259.028 335.036 257.918 334.603C257.266 334.347 256.664 333.978 256.14 333.512C255.721 333.11 255.349 332.66 255.032 332.173C254.498 331.399 254.084 330.548 253.804 329.651L253.804 329.651ZM256.396 334.601C256.282 334.373 256.199 334.207 256.107 334.022C255.931 334.132 255.816 333.993 255.706 333.824C255.507 333.52 255.303 333.219 255.101 332.917L255.167 332.865C255.628 333.338 255.964 333.948 256.653 334.16C256.562 334.316 256.505 334.414 256.396 334.601L256.396 334.601ZM257.237 334.966C256.877 334.959 256.729 334.767 256.791 334.361C257.257 334.598 257.257 334.598 257.237 334.966L257.237 334.966ZM264.994 330.92C264.947 331.073 265.178 331.374 264.745 331.328C264.694 331.342 264.655 331.381 264.64 331.431C264.653 331.483 264.691 331.526 264.741 331.543C264.85 331.557 264.959 331.561 265.068 331.556C265.034 331.765 264.987 331.972 264.927 332.175C264.917 332.205 264.734 332.192 264.636 332.171C264.514 332.137 264.394 332.095 264.278 332.045L264.218 332.18C264.409 332.28 264.601 332.38 264.823 332.496C264.75 332.681 264.661 332.86 264.559 333.03C264.37 333.298 264.243 332.874 263.996 332.997L264.33 333.406L264.028 333.771C263.714 334.409 263.182 334.915 262.528 335.197C262.363 335.275 262.292 335.263 262.209 335.108C262.138 334.997 262.059 334.892 261.971 334.794L261.861 334.864L262.12 335.407C261.943 335.531 261.772 335.694 261.578 335.489C261.462 335.343 261.361 335.185 261.275 335.019L261.183 335.051L261.383 335.709C261.222 335.704 261.005 335.757 260.871 335.675C260.739 335.593 260.69 335.376 260.585 335.181C260.391 335.406 260.573 335.572 260.62 335.754C260.246 336.08 260.213 335.625 260.022 335.436C259.993 335.57 260.001 335.673 259.952 335.724C259.879 335.799 259.784 335.848 259.681 335.866C259.64 335.871 259.563 335.755 259.536 335.681C259.497 335.555 259.467 335.427 259.444 335.297L259.336 335.309L259.281 335.852C259.122 335.787 258.932 335.768 258.862 335.666C258.784 335.551 258.815 335.362 258.798 335.206L258.674 335.194L258.583 335.637C258.132 335.677 258.273 335.238 258.079 334.976C258.025 335.152 257.984 335.283 257.943 335.415C257.52 335.269 257.416 335.105 257.547 334.772C258.218 335.05 258.943 335.176 259.669 335.143C260.339 335.112 260.99 334.905 261.555 334.543C262.079 334.216 262.587 333.862 263.076 333.484C263.52 333.124 263.868 332.659 264.088 332.132C264.337 331.493 264.374 330.792 264.195 330.131C264.075 329.633 263.967 329.133 263.847 328.603C264.148 328.796 264.381 329.079 264.514 329.412C264.641 329.691 264.752 329.977 264.846 330.269C264.924 330.413 264.9 330.59 264.787 330.708C264.591 330.934 264.882 330.858 264.994 330.92Z" fill="#2BCACA"/>
<path d="M263.497 333.311C263.574 333.693 263.708 333.798 264.027 333.769C264.039 333.743 264.06 333.703 264.055 333.699C263.881 333.574 263.703 333.453 263.497 333.311Z" fill="#F93059"/>
<path d="M264.03 333.77L264.027 333.77L264.025 333.776L264.03 333.77Z" fill="#F93059"/>
<path d="M262.315 334.513C262.448 334.674 262.58 334.835 262.712 334.996L262.829 334.883L262.422 334.42L262.315 334.513Z" fill="#F93059"/>
<path d="M262.874 334.05L263.3 334.435L263.396 334.319L262.963 333.944L262.874 334.05Z" fill="#F93059"/>
</svg>
