<svg width="278" height="301" viewBox="0 0 278 301" fill="none" xmlns="http://www.w3.org/2000/svg">
<path d="M221.598 293.885C221.598 293.885 242.732 280.436 242.732 261.223C242.732 242.01 225.921 233.845 225.921 233.845C225.921 233.845 255.513 219.926 246.276 178.56C237.04 137.194 207.337 134.39 207.337 134.39C207.337 134.39 210.968 77.1356 157.428 107.863C157.428 107.863 160.843 30.9391 109.698 62.9044L114.439 199L221.598 293.885Z" fill="#CCF3E2"/>
<path d="M225.137 234.185C225.137 234.185 254.729 220.266 245.492 178.9C243.831 171.46 236.325 161.672 233.632 156.52C245.352 215.81 205.078 243.498 160.955 211.784C158.587 210.082 152.354 231.462 149.511 231.089L220.814 294.225C220.814 294.225 241.949 280.776 241.949 261.563C241.948 242.351 225.137 234.185 225.137 234.185V234.185Z" fill="#B1B6E1"/>
<path d="M221.615 294.041C214.599 268.503 201.977 241.879 181.952 225.672C185.716 215.009 187.75 203.507 187.75 186.089L188.389 151.432C188.389 139.029 184.623 127.507 178.172 117.945C181.132 114.932 183.636 110.87 185.403 105.735C190.785 90.0957 180.939 68.2912 176.069 66.6155C171.199 64.9397 150.021 76.0684 144.639 91.7076C144.426 92.3258 144.238 92.9358 144.061 93.5422C139.08 92.2016 133.845 91.4821 128.441 91.4821H91.4442C88.6815 91.4821 86.0272 91.6924 83.4766 92.0797C83.0981 88.6801 82.054 85.0485 80.2387 81.2686C73.1536 66.5141 51.0602 58.0069 46.4665 60.2129C41.8721 62.4196 34.6979 84.9805 41.7825 99.735C44.1268 104.617 47.0805 108.342 50.3659 110.966C43.8502 118.353 39.5331 126.44 37.3229 132.517C31.9897 147.184 29.3225 167.185 29.3225 167.185C14.8745 180.786 10.2778 199.396 16.0586 215.583C20.8288 228.939 30.243 238.731 42.7709 245.157C53.7819 250.805 71.6512 252.829 81.4364 251.979C75.9983 263.942 73.1266 281.163 71.1971 294.041H221.615Z" fill="white"/>
<path d="M181.952 225.674C185.716 215.011 187.75 203.509 187.75 186.09L188.389 151.433C188.389 139.031 184.623 127.508 178.172 117.947C181.132 114.934 183.636 110.872 185.403 105.737C190.785 90.0975 180.939 68.293 176.069 66.6172C173.771 65.8262 173.115 66.3237 166.927 70.3643C170.761 77.5579 173.393 86.8168 172.423 98.4553C171.813 105.784 162.336 113.537 159.857 116.403C165.259 125.5 169.394 156.104 169.394 167.904L169.232 176.703C169.232 188.781 164.052 205.199 161.246 216.453C159.61 223.016 158.696 228.914 163.601 233.571C170.197 239.833 175.304 245.859 179.697 256.946C184.587 269.287 175.448 282.672 162.173 282.672H73.0323C72.3286 286.655 71.7257 290.514 71.1971 294.042H221.616C214.599 268.504 201.977 241.881 181.952 225.674V225.674Z" fill="#E1BDFC"/>
<path d="M126.286 101.456C126.266 101.189 126.235 100.922 126.176 100.651C125.802 90.2516 122.642 81.2476 115.414 74.2802C115.234 62.6423 112.146 53.5849 104.775 48.2106C101.053 35.3446 95.2815 21.6185 88.0757 7.29052C87.1745 5.08213 83.8792 5.79463 83.9718 8.17881C83.0858 21.077 83.029 33.0601 85.3001 42.472C82.1852 50.1308 82.1348 57.8505 86.1989 65.671C83.6805 73.4171 83.5698 81.4644 87.1382 89.92C83.3682 98.0599 86.186 105.496 87.2038 109.019C91.3856 120.84 127.155 113.281 126.286 101.456Z" fill="#F6E06E"/>
<path d="M126.286 101.455C126.266 101.188 126.235 100.921 126.176 100.65C125.91 93.2646 124.23 86.5879 120.695 80.8398C121.043 82.7447 121.254 84.7158 121.33 86.7525C121.381 86.9834 121.41 87.2119 121.427 87.4393C122.191 97.5291 90.7047 103.979 87.0239 93.8916C86.851 93.3115 86.619 92.6055 86.3811 91.7963C83.7989 99.1867 86.2651 105.768 87.2043 109.018C91.3856 120.839 127.155 113.28 126.286 101.455Z" fill="#DDA86A"/>
<path d="M36.0121 112.63C44.3248 107.83 50.4901 100.169 53.8856 91.191C54.85 88.641 56.2094 86.18 57.9813 83.8925C66.444 72.9648 81.8811 69.8669 93.8981 76.6954C108.23 84.8394 112.397 103.256 103.389 116.698C95.633 128.271 83.1362 133.098 71.5738 132.73C64.8379 132.516 49.3053 128.372 37.5115 124.95C31.8016 123.293 30.8641 115.603 36.0121 112.63V112.63Z" fill="#CCF3E2"/>
<path d="M93.8975 76.695C81.8811 69.8671 66.4434 72.965 57.9807 83.8921C56.2088 86.1802 54.8495 88.6406 53.885 91.1911C50.4901 100.169 44.3243 107.831 36.0116 112.631C30.8635 115.603 31.801 123.293 37.5104 124.949C49.3041 128.372 64.8368 132.516 71.5721 132.73C83.1344 133.098 95.6313 128.271 103.387 116.698C112.397 103.255 108.23 84.8396 93.8975 76.695ZM95.1889 103.29C91.3217 112.55 83.036 117.65 74.6518 118.935C69.7674 119.683 57.962 118.816 48.9573 117.961C44.5985 117.547 42.7803 112.209 46.0469 109.409C51.3221 104.887 54.625 98.6185 55.7366 91.7853C56.0524 89.8441 56.6659 87.9146 57.6022 86.0519C62.0747 77.1562 72.7352 72.8911 82.4067 76.1361C93.942 80.0056 99.6813 92.5335 95.1889 103.29V103.29Z" fill="#B1B6E1"/>
<path d="M102.922 188.676C106.339 188.666 108.803 191.978 107.785 195.241C105.293 203.232 98.3471 208.99 90.1528 209.012C81.9584 209.034 74.9817 203.313 72.4469 195.336C71.4121 192.079 73.8573 188.754 77.2744 188.745L102.922 188.676Z" fill="#D789B9"/>
<path d="M173.805 150.16C174.478 152.055 174.885 154.181 174.949 156.436C175.182 164.608 170.828 171.363 165.224 171.523C159.62 171.683 154.889 165.187 154.656 157.015C154.598 154.972 154.826 153.017 155.289 151.232" fill="#96B4EB"/>
<path d="M257.438 70.6886L262.333 84.4522C262.543 85.0417 262.957 85.5087 263.481 85.7442L275.709 91.2538C277.437 92.0319 277.437 94.7847 275.709 95.5634L263.481 101.073C262.957 101.309 262.542 101.775 262.333 102.365L257.438 116.129C256.747 118.073 254.301 118.073 253.609 116.129L248.714 102.365C248.505 101.775 248.09 101.308 247.567 101.073L235.338 95.5634C233.611 94.7853 233.611 92.0325 235.338 91.2538L247.567 85.7442C248.09 85.5081 248.505 85.0417 248.714 84.4522L253.609 70.6886C254.301 68.7444 256.747 68.7444 257.438 70.6886Z" fill="#FBF2AA"/>
<path d="M175.92 9.31631L179.551 19.5257C179.706 19.9628 180.014 20.3091 180.402 20.4843L189.473 24.5712C190.755 25.1483 190.755 27.1903 189.473 27.7675L180.402 31.8544C180.014 32.0296 179.706 32.3759 179.551 32.813L175.92 43.0229C175.407 44.4655 173.593 44.4655 173.08 43.0229L169.449 32.813C169.293 32.3759 168.986 32.0296 168.597 31.8544L159.527 27.7675C158.245 27.1903 158.245 25.1483 159.527 24.5712L168.597 20.4843C168.986 20.3091 169.293 19.9628 169.449 19.5257L173.08 9.31631C173.593 7.87373 175.407 7.87373 175.92 9.31631V9.31631Z" fill="#FBF2AA"/>
<path d="M8.25745 41.9746C12.2685 41.9746 15.5201 38.723 15.5201 34.7119C15.5201 30.7008 12.2685 27.4492 8.25745 27.4492C4.24637 27.4492 0.994751 30.7008 0.994751 34.7119C0.994751 38.723 4.24637 41.9746 8.25745 41.9746Z" fill="#F7E16E"/>
<path d="M238.461 37.8629C238.461 40.9783 235.936 43.5037 232.82 43.5037C229.705 43.5037 227.18 40.9783 227.18 37.8629C227.18 34.748 229.705 32.2227 232.82 32.2227C235.936 32.2227 238.461 34.7475 238.461 37.8629Z" fill="#F7E16E"/>
<path d="M236.3 233.933C238.861 231.77 241.73 228.89 244.394 225.201C250.806 216.318 257.345 200.789 252.092 177.26C246.898 153.998 235.421 142.007 226.708 136.044C221.553 132.517 216.763 130.613 213.295 129.594C212.95 121.057 210.65 104.274 198.377 96.6384C196.662 95.5714 194.834 94.7382 192.903 94.1223C192.707 88.0649 191.364 82.6432 190.264 79.1493C189.109 75.479 184.81 63.3214 178.008 60.9805C171.201 58.6385 160.336 65.5778 157.166 67.7598C157.101 67.8044 157.029 67.8565 156.963 67.9022C153.81 60.7725 149.549 55.6157 144.21 52.5003C136.395 47.9393 126.934 48.0559 116 52.8132C114.622 49.8606 112.682 47.0997 109.957 44.729C106.325 32.6891 100.924 19.5899 93.4721 4.75574C91.9041 1.28992 88.1395 -0.629027 84.3901 0.186598C80.6822 0.989332 78.0567 4.23308 78.0115 7.98953C76.9979 22.9075 77.3313 33.5346 79.0967 42.0272C75.9057 51.0852 76.5133 59.9546 80.9113 68.4173C81.0924 68.7653 81.3115 69.0776 81.5471 69.3735C81.536 69.4303 81.5272 69.4878 81.5166 69.5446C80.7315 69.5112 79.9469 69.5048 79.1629 69.5294C74.3846 64.4821 68.8317 61.0327 65.2053 59.1137C61.8344 57.3296 50.3301 51.7497 43.8865 54.8411C37.4436 57.936 34.607 70.403 33.891 74.1507C32.7215 80.2737 31.4934 92.0751 36.41 102.314C37.1113 103.774 37.8754 105.151 38.6863 106.46C37.2742 107.597 35.7871 108.63 34.2244 109.531C30.5828 111.634 28.6346 115.533 29.1402 119.707C29.4942 122.626 30.9842 125.125 33.2277 126.768C32.677 128.014 32.169 129.254 31.7231 130.48C27.1902 142.943 24.5576 158.723 23.7133 164.331C9.02853 179.14 3.93849 199.361 10.4477 217.586C15.5793 231.955 25.5397 243.015 40.0516 250.458C49.5162 255.313 62.6442 257.532 72.7598 258.01C69.257 268.794 67.0399 281.573 65.3043 293.157C64.8168 296.411 67.0598 299.445 70.3147 299.933C73.5678 300.419 76.6029 298.178 77.0904 294.923C79.1887 280.919 81.9906 265.159 86.8615 254.444C87.7381 252.515 87.5248 250.266 86.3026 248.537C85.0797 246.807 83.033 245.862 80.9207 246.04C72.5465 246.77 55.5707 245.024 45.4908 239.854C33.7645 233.839 25.75 224.999 21.6707 213.577C16.559 199.264 21.0561 183.15 33.407 171.523C34.4037 170.584 35.0477 169.33 35.2293 167.973C35.2557 167.779 37.8795 148.423 42.9233 134.553C43.2549 133.641 43.7863 132.297 44.5469 130.652C57.6438 134.25 66.6807 136.148 71.4608 136.301C71.916 136.316 72.3701 136.323 72.8231 136.323C86.4537 136.323 98.9131 129.797 106.36 118.685C106.5 118.475 106.629 118.258 106.765 118.046C107.759 117.901 108.744 117.736 109.698 117.536C119.304 115.523 130.271 110.108 129.861 101.454C129.736 100.123 129.665 98.7718 129.549 97.4593C133.939 97.5489 138.295 98.1612 142.512 99.2962C145.639 100.138 148.87 98.3259 149.781 95.2163C149.958 94.611 150.115 94.1118 150.275 93.6466C154.205 82.2255 168.938 73.5079 174.043 72.5036C177.45 76.4376 183.698 92.3751 179.769 103.796C178.356 107.903 176.389 111.258 173.922 113.768C171.937 115.789 171.648 118.929 173.233 121.278C179.24 130.182 182.421 140.589 182.431 151.378L181.793 185.979C181.793 186.015 181.792 186.052 181.792 186.089C181.792 201.604 180.16 212.849 176.334 223.689C175.495 226.067 176.243 228.717 178.205 230.304C194.56 243.541 207.936 266.737 215.87 295.619C216.597 298.264 218.996 300.001 221.613 300.001C222.136 300.001 222.667 299.932 223.195 299.786C224.273 299.49 225.195 298.912 225.915 298.159C230.668 294.837 248.692 280.943 248.692 261.223C248.69 247.865 241.983 239.026 236.3 233.933V233.933ZM97.0908 43.5817L91.1893 41.586C91.1852 41.5573 91.1781 41.5298 91.1735 41.5011C91.1535 41.3827 91.1336 41.2649 91.1067 41.1477C91.1008 41.1219 91.0985 41.0968 91.092 41.071C89.8551 35.944 89.4151 29.8544 89.367 23.8901C92.4643 30.8522 95.0248 37.3837 97.0908 43.5817ZM89.5721 48.5874L100.395 52.2471C100.403 52.2559 100.413 52.2647 100.422 52.2735C100.519 52.3784 100.621 52.4786 100.725 52.5747C100.755 52.6028 100.784 52.6309 100.814 52.6585C100.956 52.7844 101.102 52.9028 101.253 53.0141C101.257 53.0171 101.261 53.0206 101.265 53.0235C105.258 55.935 107.062 60.6548 107.252 68.9434L91.8461 63.7889C91.7483 63.4954 91.6334 63.2048 91.4863 62.9212C89.0254 58.1862 88.3967 53.5509 89.5721 48.5874V48.5874ZM49.1652 65.8333C52.2983 66.0969 59.2164 68.7477 65.3178 73.1862C61.4494 75.2229 57.9602 78.0764 55.1541 81.6993C53.2047 84.2171 51.6526 86.9839 50.541 89.9223C49.6029 92.4038 48.4311 94.7557 47.0635 96.9524C42.0678 86.2421 46.2988 70.0989 49.1652 65.8333V65.8333ZM71.6869 129.153C66.7258 128.994 54.9426 126.281 38.507 121.511C36.6367 120.969 36.2981 119.333 36.2389 118.845C36.1803 118.358 36.1182 116.693 37.7998 115.723H37.8004C46.5701 110.659 53.4701 102.395 57.2295 92.4512C58.0891 90.1778 59.2932 88.0327 60.8078 86.0774C68.1883 76.5454 81.6537 73.8471 92.1315 79.8003C98.1432 83.2163 102.324 88.7809 103.902 95.4688C105.459 102.065 104.189 109.077 100.418 114.704C94.1055 124.123 83.3781 129.519 71.6869 129.153V129.153ZM110.41 110.014C111.28 107.053 111.709 103.973 111.692 100.88L121.878 103.882C120.193 106.067 116.076 108.501 110.41 110.014ZM110.678 93.1274C108.516 84.796 103.212 77.8719 95.6635 73.5829C93.5781 72.3981 91.4008 71.48 89.1748 70.8161C89.3113 70.7358 89.4502 70.6585 89.5791 70.5694L114.084 78.769C114.351 78.8587 114.62 78.9032 114.889 78.9284C118.959 83.6546 121.392 89.4653 122.265 96.5417L110.678 93.1274ZM140.29 86.5901C136.39 85.8805 132.423 85.5225 128.44 85.5225H126.91C125.127 80.7565 122.527 76.5466 119.106 72.9319C119.143 72.6835 119.17 72.4321 119.174 72.1749C119.221 69.7532 119.185 67.1803 118.946 64.5706C127.007 60.6507 133.471 60.0348 138.195 62.7887C142.453 65.2696 145.408 70.2706 147.433 76.1534C144.737 79.0848 142.16 82.58 140.29 86.5901V86.5901ZM224.763 283.75C218.396 263.979 207.413 240.262 188.868 223.73C192.241 212.768 193.705 201.25 193.709 186.143L194.347 151.54C194.348 151.503 194.348 151.467 194.348 151.43C194.348 139.763 191.309 128.455 185.521 118.46C187.787 115.36 189.636 111.748 191.038 107.673C191.184 107.25 191.316 106.824 191.443 106.399C191.651 106.511 191.861 106.62 192.063 106.745C200.73 112.116 201.734 128.257 201.39 134.012C201.186 137.224 203.524 140.014 206.729 140.317C207.772 140.433 232.358 143.567 240.46 179.857C248.482 215.786 224.38 227.967 223.384 228.451C221.307 229.429 219.96 231.503 219.946 233.799C219.931 236.094 221.221 238.185 223.285 239.188C223.836 239.464 236.773 246.12 236.773 261.222C236.772 270.717 230.074 278.817 224.763 283.75V283.75Z" fill="#3C122C"/>
<path d="M64.2502 174.132C62.2756 174.132 60.6748 172.531 60.6748 170.557C60.6748 168.474 58.9803 166.779 56.8967 166.779C54.8137 166.779 53.1192 168.474 53.1192 170.557C53.1192 172.531 51.5184 174.132 49.5438 174.132C47.5692 174.132 45.9684 172.531 45.9684 170.557C45.9684 164.531 50.8703 159.629 56.8967 159.629C62.9225 159.629 67.825 164.531 67.825 170.557C67.825 172.531 66.2242 174.132 64.2502 174.132V174.132Z" fill="#3C122C"/>
<path d="M138.838 174.132C136.863 174.132 135.262 172.531 135.262 170.557C135.262 168.474 133.568 166.779 131.484 166.779C129.402 166.779 127.707 168.474 127.707 170.557C127.707 172.531 126.106 174.132 124.131 174.132C122.157 174.132 120.556 172.531 120.556 170.557C120.556 164.531 125.458 159.629 131.484 159.629C137.509 159.629 142.413 164.531 142.413 170.557C142.413 172.531 140.812 174.132 138.838 174.132Z" fill="#3C122C"/>
<path d="M66.7334 104.204C65.848 104.204 64.9498 104.006 64.1025 103.588C61.1511 102.133 59.9383 98.5595 61.3937 95.6082C66.7527 84.7408 75.6496 81.9851 76.6469 81.7068C84.6156 79.4808 87.8224 90.9593 79.8531 93.1853L79.9551 93.1548C79.7582 93.2181 75.0941 94.7726 72.083 100.879C71.0453 102.983 68.9312 104.204 66.7334 104.204V104.204Z" fill="white"/>
<path d="M90.1064 212.585C82.1295 212.586 74.7232 207.969 70.7664 200.527C69.042 197.285 69.1451 193.459 71.0418 190.293C72.9613 187.089 76.3322 185.169 80.0588 185.159L100.117 185.105H100.146C103.861 185.105 107.23 187.004 109.162 190.19C111.075 193.346 111.199 197.172 109.492 200.423C105.567 207.904 98.1596 212.564 90.1621 212.585C90.1439 212.585 90.1246 212.585 90.1064 212.585V212.585ZM100.137 192.256L80.0787 192.31C78.3519 192.315 77.4742 193.47 77.1766 193.967C76.8895 194.446 76.3064 195.716 77.0805 197.17C79.7916 202.271 84.7803 205.435 90.1064 205.435H90.1428C95.4818 205.42 100.471 202.227 103.161 197.1C103.926 195.641 103.336 194.374 103.046 193.898C102.747 193.404 101.866 192.256 100.146 192.256C100.143 192.256 100.14 192.256 100.137 192.256V192.256Z" fill="#3C122C"/>
<path d="M130.138 151.413C126.737 151.413 123.394 149.841 121.286 146.967C120.118 145.375 120.462 143.138 122.054 141.97C123.646 140.802 125.884 141.146 127.052 142.738C128.131 144.211 130.246 144.692 131.869 143.839C133.615 142.917 135.778 143.587 136.7 145.333C137.62 147.079 136.952 149.243 135.205 150.164C133.604 151.008 131.863 151.413 130.138 151.413V151.413Z" fill="#3C122C"/>
<path d="M56.2398 150.34C54.5482 150.34 52.8432 149.95 51.2676 149.136C49.5139 148.229 48.8272 146.072 49.7336 144.318C50.6406 142.564 52.7969 141.878 54.5518 142.784C56.1736 143.623 58.2842 143.115 59.3559 141.629C60.5113 140.027 62.7455 139.666 64.3469 140.819C65.9488 141.974 66.3109 144.209 65.1566 145.81C63.049 148.733 59.6728 150.34 56.2398 150.34V150.34Z" fill="#3C122C"/>
<path d="M165.027 175.098C161.266 175.098 157.639 173.069 155.035 169.496C152.618 166.178 151.215 161.781 151.081 157.114C151.015 154.778 151.266 152.496 151.827 150.332C152.323 148.421 154.276 147.272 156.186 147.769C158.098 148.264 159.245 150.216 158.749 152.127C158.357 153.64 158.182 155.249 158.229 156.91C158.32 160.101 159.262 163.154 160.815 165.286C161.557 166.304 163.086 168.026 165.122 167.946C167.14 167.889 168.587 166.104 169.27 165.044C170.698 162.828 171.466 159.726 171.374 156.535C171.322 154.704 171.006 152.961 170.436 151.355C169.774 149.494 170.746 147.45 172.607 146.789C174.467 146.129 176.512 147.099 177.173 148.96C177.994 151.271 178.448 153.752 178.522 156.331C178.655 160.999 177.503 165.469 175.279 168.919C172.82 172.733 169.192 174.984 165.324 175.094C165.227 175.096 165.126 175.098 165.027 175.098V175.098Z" fill="#3C122C"/>
</svg>
